<svg xmlns="http://www.w3.org/2000/svg" xmlns:xlink="http://www.w3.org/1999/xlink" width="2000" zoomAndPan="magnify" viewBox="0 0 1500 1499.999933" height="2000" preserveAspectRatio="xMidYMid meet" version="1.0"><defs><clipPath id="498a6ccc2d"><path d="M 157.113281 153.558594 L 1350.363281 153.558594 L 1350.363281 1346.808594 L 157.113281 1346.808594 Z M 157.113281 153.558594 " clip-rule="nonzero"/></clipPath></defs><g clip-path="url(#498a6ccc2d)"><path fill="#ffffff" d="M 753.765625 153.601562 C 424.246094 153.601562 157.128906 420.734375 157.128906 750.234375 C 157.128906 1079.738281 424.261719 1346.871094 753.765625 1346.871094 C 1083.269531 1346.871094 1350.398438 1079.738281 1350.398438 750.234375 C 1350.398438 420.734375 1083.269531 153.601562 753.765625 153.601562 Z M 1043.707031 995.679688 L 1025.773438 1020.410156 C 1003.949219 1047.558594 982.140625 1063.558594 942.867188 1071.304688 C 819.238281 1095.0625 679.609375 991.320312 593.78125 890.464844 L 592.8125 889.496094 C 507 788.65625 427 634 470.164062 515.695312 C 484.226562 477.890625 503.613281 458.972656 533.667969 442.007812 L 561.304688 428.433594 C 576.332031 420.667969 595.25 426.496094 602.996094 441.523438 L 678.640625 580.183594 C 686.871094 595.210938 681.546875 614.113281 666.515625 622.847656 L 634.507812 641.265625 C 626.273438 646.125 619.480469 651.933594 613.667969 659.214844 C 587.96875 691.207031 602.996094 736.292969 674.265625 820.167969 L 675.234375 821.136719 C 746.5 904.523438 788.695312 926.835938 824.5625 906.460938 C 832.8125 902.105469 839.589844 895.808594 845.417969 888.527344 L 868.679688 859.925781 C 879.347656 846.347656 899.238281 844.414062 912.792969 855.082031 L 1037.394531 952.046875 C 1050.972656 962.71875 1053.890625 981.621094 1043.707031 995.679688 Z M 1043.707031 995.679688 " fill-opacity="1" fill-rule="nonzero"/></g></svg>